<?xml version="1.0" standalone="no"?>
<!DOCTYPE svg PUBLIC "-//W3C//DTD SVG 20010904//EN"
 "http://www.w3.org/TR/2001/REC-SVG-20010904/DTD/svg10.dtd">
<svg version="1.0" xmlns="http://www.w3.org/2000/svg"
 width="198.000000pt" height="198.000000pt" viewBox="0 0 198.000000 198.000000"
 preserveAspectRatio="xMidYMid meet">
<metadata>
Created by potrace 1.11, written by Peter Selinger 2001-2013
</metadata>
<g transform="translate(0.000000,198.000000) scale(0.100000,-0.100000)"
fill="#000000" stroke="none">
<path d="M1006 1873 c-293 -62 -525 -277 -615 -567 -41 -134 -47 -274 -18
-424 l21 -104 -35 -32 c-19 -17 -61 -54 -94 -81 -33 -28 -62 -52 -65 -55 -3
-3 -49 -43 -104 -90 -209 -178 -19 -77 339 181 117 85 247 169 259 169 10 -1
-28 -38 -214 -208 -44 -41 -80 -78 -80 -83 0 -9 61 20 112 55 68 45 39 1 -71
-113 -112 -113 -139 -151 -110 -151 15 0 68 32 152 93 l69 50 35 -36 36 -35
-39 -34 c-188 -164 -325 -308 -291 -308 26 0 253 158 357 249 19 17 41 31 49
31 8 0 22 6 30 14 33 28 242 166 253 166 16 0 -23 -40 -129 -132 -51 -44 -93
-83 -93 -86 1 -11 140 -69 210 -88 87 -23 246 -27 341 -9 242 47 448 203 566
430 64 124 84 207 89 365 3 117 0 147 -21 227 -77 300 -293 517 -595 600 -79
21 -259 25 -344 6z m17 -232 c34 -13 45 -53 23 -86 -27 -41 -100 -77 -169 -82
-54 -4 -65 -2 -85 17 -72 68 120 193 231 151z"/>
</g>
</svg>
